<svg width="12" height="12" viewBox="0 0 12 12" fill="none" xmlns="http://www.w3.org/2000/svg">
<path d="M2.49023 11.48H0.174316V4.03418H2.49023V11.48ZM1.31982 3.03809C0.597656 3.03809 0 2.41553 0 1.66846C0 0.647461 1.0957 0 1.99219 0.522949C2.41553 0.74707 2.66455 1.19531 2.66455 1.66846C2.66455 2.41553 2.06689 3.03809 1.31982 3.03809ZM11.1313 11.48H8.84033V7.86914C8.84033 6.99756 8.81543 5.90186 7.62012 5.90186C6.4248 5.90186 6.25049 6.82324 6.25049 7.79443V11.48H3.93457V4.03418H6.15088V5.05518H6.17578C6.49951 4.48242 7.24658 3.85986 8.36719 3.85986C10.708 3.85986 11.1562 5.40381 11.1562 7.396V11.48H11.1313Z" fill="white"/>
</svg>
