<svg width="21" height="21" viewBox="0 0 21 21" fill="none" xmlns="http://www.w3.org/2000/svg">
<path d="M7.46022 1.63461L8.38515 3.65608C8.6266 4.18392 8.69383 4.7728 8.57742 5.3401C8.46101 5.9074 8.1668 6.42466 7.73606 6.81929L6.20305 8.22303C6.15827 8.26404 6.1299 8.31944 6.12307 8.37922C6.07795 8.77928 6.35379 9.55824 6.99058 10.6415C7.45202 11.4286 7.87141 11.9818 8.22723 12.2912C8.47641 12.5078 8.61279 12.5542 8.67124 12.538L10.7323 11.9183C11.2952 11.7491 11.8978 11.7572 12.4557 11.9416C13.0137 12.1259 13.4989 12.4772 13.8435 12.9462L15.156 14.7359C15.5556 15.28 15.7407 15.9481 15.6769 16.6162C15.6132 17.2843 15.3049 17.907 14.8094 18.3687L13.8999 19.2151C13.4178 19.6637 12.8257 19.982 12.1813 20.139C11.5369 20.296 10.8622 20.2863 10.2227 20.111C7.39767 19.3361 4.86591 16.9941 2.59768 13.1336C0.327402 9.26802 -0.470374 5.93855 0.265877 3.14416C0.421563 2.55183 0.721257 2.0055 1.13921 1.55211C1.55716 1.09872 2.08088 0.751831 2.66536 0.541245L2.87659 0.471713L4.07326 0.118006C4.7288 -0.0762565 5.43387 -0.0294923 6.0569 0.249573C6.67994 0.528638 7.17837 1.02094 7.45919 1.63461M4.51624 1.56407L3.3206 1.91979L3.15756 1.97421C2.81487 2.10388 2.50863 2.31207 2.26429 2.58146C2.01995 2.85085 1.84457 3.17366 1.75274 3.52306C1.13441 5.87204 1.84092 8.82362 3.92867 12.3778C6.01438 15.927 8.25902 18.0039 10.6349 18.6559C11.0187 18.7611 11.4237 18.7668 11.8104 18.6725C12.1971 18.5782 12.5524 18.3871 12.8416 18.1177L13.7501 17.2713C13.9755 17.0615 14.1158 16.7784 14.1448 16.4746C14.1739 16.1708 14.0897 15.867 13.9081 15.6196L12.5955 13.8309C12.4389 13.6175 12.2182 13.4577 11.9644 13.3738C11.7106 13.2899 11.4365 13.2863 11.1804 13.3634L9.11422 13.9851C7.91448 14.3358 6.82651 13.3875 5.65753 11.3973C4.87001 10.0571 4.50291 9.01912 4.5952 8.21194C4.64237 7.79273 4.8413 7.40577 5.15405 7.11757L6.68705 5.71383C6.88276 5.53435 7.01638 5.29916 7.06916 5.04126C7.12194 4.78337 7.09123 4.5157 6.98135 4.27582L6.05745 2.25435C5.92978 1.97541 5.7032 1.75164 5.41998 1.62481C5.13677 1.49798 4.81627 1.47675 4.51829 1.56508M18.4568 9.11989H11.7372L11.6347 9.10578L11.5301 9.07656L11.4819 9.0564C11.3362 8.99615 11.2141 8.89161 11.1333 8.75812L11.083 8.66239L11.0574 8.59487L11.0338 8.49914L11.0215 8.39333V1.80895C11.0216 1.61746 11.0956 1.43313 11.2286 1.29321C11.3616 1.15329 11.5437 1.0682 11.7381 1.05515C11.9325 1.0421 12.1247 1.10205 12.2759 1.22289C12.427 1.34374 12.5259 1.51646 12.5525 1.70616L12.5596 1.80895L12.5586 6.53914L18.9367 0.268155C19.067 0.139894 19.2398 0.0619051 19.4237 0.048402C19.6076 0.034899 19.7903 0.0867809 19.9385 0.194592L20.0247 0.268155C20.1549 0.396123 20.2341 0.565775 20.2479 0.746265C20.2616 0.926755 20.209 1.1061 20.0995 1.25168L20.0257 1.33633L13.6476 7.60631L18.4568 7.60732C18.6428 7.60708 18.8226 7.67311 18.9629 7.79318C19.1032 7.91324 19.1944 8.0792 19.2197 8.26031L19.2259 8.3631C19.2259 8.54573 19.1586 8.72219 19.0364 8.85983C18.9143 8.99747 18.7455 9.08699 18.5614 9.11183L18.4568 9.11989Z" fill="white"/>
</svg>
