<svg width="12" height="10" viewBox="0 0 12 10" fill="none" xmlns="http://www.w3.org/2000/svg">
<path d="M10.0854 2.26318C10.0854 2.37305 10.0854 2.46094 10.0854 2.5708C10.0854 5.625 7.77832 9.11865 3.5376 9.11865C2.21924 9.11865 1.01074 8.74512 0 8.08594C0.175781 8.10791 0.351562 8.12988 0.549316 8.12988C1.62598 8.12988 2.61475 7.75635 3.40576 7.14111C2.39502 7.11914 1.53809 6.45996 1.25244 5.53711C1.40625 5.55908 1.53809 5.58105 1.69189 5.58105C1.88965 5.58105 2.10938 5.53711 2.28516 5.49316C1.23047 5.27344 0.439453 4.35059 0.439453 3.22998V3.20801C0.74707 3.38379 1.12061 3.47168 1.49414 3.49365C0.856934 3.07617 0.461426 2.37305 0.461426 1.58203C0.461426 1.14258 0.571289 0.74707 0.769043 0.41748C1.91162 1.80176 3.62549 2.72461 5.53711 2.83447C5.49316 2.65869 5.47119 2.48291 5.47119 2.30713C5.47119 1.03271 6.50391 0 7.77832 0C8.4375 0 9.03076 0.263672 9.47021 0.725098C9.97559 0.615234 10.481 0.41748 10.9204 0.153809C10.7446 0.703125 10.3931 1.14258 9.90967 1.42822C10.3711 1.38428 10.8325 1.25244 11.228 1.07666C10.9204 1.53809 10.5249 1.93359 10.0854 2.26318Z" fill="white"/>
</svg>
